<?xml version="1.0" standalone="no"?>
<!DOCTYPE svg PUBLIC "-//W3C//DTD SVG 20010904//EN"
 "http://www.w3.org/TR/2001/REC-SVG-20010904/DTD/svg10.dtd">
<svg version="1.0" xmlns="http://www.w3.org/2000/svg"
 width="96.000000pt" height="96.000000pt" viewBox="0 0 96.000000 96.000000"
 preserveAspectRatio="xMidYMid meet">
<metadata>
Created by potrace 1.11, written by Peter Selinger 2001-2013
</metadata>
<g transform="translate(0.000000,96.000000) scale(0.100000,-0.100000)"
fill="#000000" stroke="none">
<path d="M89 811 l-29 -29 0 -181 0 -181 30 0 30 0 0 120 0 120 360 0 360 0
-2 -237 -3 -238 -57 -3 c-57 -3 -58 -4 -58 -32 0 -30 0 -30 61 -30 54 0 64 3
90 29 l29 29 0 302 0 302 -29 29 -29 29 -362 0 -362 0 -29 -29z m749 -63 l3
-28 -360 0 -361 0 0 23 c0 13 3 27 7 30 4 4 164 6 357 5 l351 -3 3 -27z"/>
<path d="M356 403 c-3 -10 -18 -78 -34 -151 l-29 -132 31 0 32 0 28 138 c16
75 31 143 34 150 3 8 -6 12 -26 12 -20 0 -32 -6 -36 -17z"/>
<path d="M135 340 l-70 -70 72 -72 c72 -71 72 -72 93 -53 l21 19 -53 53 -52
53 52 53 c51 51 52 54 34 70 -10 9 -21 17 -23 17 -3 0 -36 -32 -74 -70z"/>
<path d="M487 393 c-16 -16 -14 -20 35 -70 l52 -53 -52 -53 -53 -53 21 -19
c21 -19 21 -18 93 53 l72 72 -70 70 c-38 38 -72 70 -75 70 -3 0 -13 -8 -23
-17z"/>
</g>
</svg>
